HIERARCHY
ROOT pelvis
{
	OFFSET 0.003123 -0.351407 0.012037
	CHANNELS 6 Xposition Yposition Zposition Zrotation Yrotation Xrotation 
	JOINT left_hip
	{
		OFFSET 0.058189 -0.092763 -0.026001
		CHANNELS 3 Zrotation Yrotation Xrotation
		JOINT left_knee
		{
			OFFSET 0.054695 -0.378753 -0.009396
			CHANNELS 3 Zrotation Yrotation Xrotation
			JOINT left_ankle
			{
				OFFSET -0.043453 -0.403059 -0.031876
				CHANNELS 3 Zrotation Yrotation Xrotation
				JOINT left_foot
				{
					OFFSET 0.047257 -0.057997 0.118216
					CHANNELS 3 Zrotation Yrotation Xrotation
					End Site
					{
						OFFSET 0.000000 0.000000 0.000000
					}
				}
			}
		}
	}
	JOINT right_hip
	{
		OFFSET -0.063267 -0.103908 -0.021250
		CHANNELS 3 Zrotation Yrotation Xrotation
		JOINT right_knee
		{
			OFFSET -0.044210 -0.362380 -0.016824
			CHANNELS 3 Zrotation Yrotation Xrotation
			JOINT right_ankle
			{
				OFFSET 0.015417 -0.410728 -0.020192
				CHANNELS 3 Zrotation Yrotation Xrotation
				JOINT right_foot
				{
					OFFSET -0.038812 -0.058328 0.119049
					CHANNELS 3 Zrotation Yrotation Xrotation
					End Site
					{
						OFFSET 0.000000 0.000000 0.000000
					}
				}
			}
		}
	}
	JOINT spine_1
	{
		OFFSET -0.002763 0.109891 -0.027618
		CHANNELS 3 Zrotation Yrotation Xrotation
		JOINT spine_2
		{
			OFFSET 0.009448 0.131853 -0.005940
			CHANNELS 3 Zrotation Yrotation Xrotation
			JOINT spine_3
			{
				OFFSET -0.011330 0.052235 0.028447
				CHANNELS 3 Zrotation Yrotation Xrotation
				JOINT neck
				{
					OFFSET -0.012164 0.165167 -0.031615
					CHANNELS 3 Zrotation Yrotation Xrotation
					JOINT head
					{
						OFFSET 0.024783 0.160452 0.020737
						CHANNELS 3 Zrotation Yrotation Xrotation
						End Site
						{
							OFFSET 0.000000 0.000000 0.000000
						}
					}
				}
				JOINT left_collar
				{
					OFFSET 0.046364 0.084944 -0.007220
					CHANNELS 3 Zrotation Yrotation Xrotation
					JOINT left_shoulder
					{
						OFFSET 0.119239 0.057728 -0.015461
						CHANNELS 3 Zrotation Yrotation Xrotation
						JOINT left_elbow
						{
							OFFSET 0.254123 -0.072151 -0.042459
							CHANNELS 3 Zrotation Yrotation Xrotation
							JOINT left_wrist
							{
								OFFSET 0.251987 0.023221 -0.002472
								CHANNELS 3 Zrotation Yrotation Xrotation
								JOINT left_index_1
								{
									OFFSET 0.101902 -0.008688 0.019351
									CHANNELS 3 Zrotation Yrotation Xrotation
									JOINT left_index_2
									{
										OFFSET 0.030149 -0.011154 0.001151
										CHANNELS 3 Zrotation Yrotation Xrotation
										JOINT left_index_3
										{
											OFFSET 0.006504 -0.021577 -0.002433
											CHANNELS 3 Zrotation Yrotation Xrotation
											End Site
											{
												OFFSET 0.000000 0.000000 0.000000
											}
										}
									}
								}
								JOINT left_middle_1
								{
									OFFSET 0.109398 -0.006328 -0.003981
									CHANNELS 3 Zrotation Yrotation Xrotation
									JOINT left_middle_2
									{
										OFFSET 0.026472 -0.015218 -0.004641
										CHANNELS 3 Zrotation Yrotation Xrotation
										JOINT left_middle_3
										{
											OFFSET 0.005022 -0.023347 -0.001911
											CHANNELS 3 Zrotation Yrotation Xrotation
											End Site
											{
												OFFSET 0.000000 0.000000 0.000000
											}
										}
									}
								}
								JOINT left_pinky_1
								{
									OFFSET 0.084047 -0.014539 -0.043750
									CHANNELS 3 Zrotation Yrotation Xrotation
									JOINT left_pinky_2
									{
										OFFSET 0.012124 -0.014448 -0.005375
										CHANNELS 3 Zrotation Yrotation Xrotation
										JOINT left_pinky_3
										{
											OFFSET 0.003798 -0.018853 0.000167
											CHANNELS 3 Zrotation Yrotation Xrotation
											End Site
											{
												OFFSET 0.000000 0.000000 0.000000
											}
										}
									}
								}
								JOINT left_ring_1
								{
									OFFSET 0.097444 -0.009268 -0.027345
									CHANNELS 3 Zrotation Yrotation Xrotation
									JOINT left_ring_2
									{
										OFFSET 0.023561 -0.016057 -0.001895
										CHANNELS 3 Zrotation Yrotation Xrotation
										JOINT left_ring_3
										{
											OFFSET 0.004257 -0.023548 0.000814
											CHANNELS 3 Zrotation Yrotation Xrotation
											End Site
											{
												OFFSET 0.000000 0.000000 0.000000
											}
										}
									}
								}
								JOINT left_thumb_1
								{
									OFFSET 0.040636 -0.017977 0.025611
									CHANNELS 3 Zrotation Yrotation Xrotation
									JOINT left_thumb_2
									{
										OFFSET 0.021637 -0.017639 0.011623
										CHANNELS 3 Zrotation Yrotation Xrotation
										JOINT left_thumb_3
										{
											OFFSET 0.024002 -0.008356 0.006548
											CHANNELS 3 Zrotation Yrotation Xrotation
											End Site
											{
												OFFSET 0.000000 0.000000 0.000000
											}
										}
									}
								}
							}
						}
					}
				}
				JOINT right_collar
				{
					OFFSET -0.047695 0.084339 -0.013400
					CHANNELS 3 Zrotation Yrotation Xrotation
					JOINT right_shoulder
					{
						OFFSET -0.102578 0.053524 -0.012669
						CHANNELS 3 Zrotation Yrotation Xrotation
						JOINT right_elbow
						{
							OFFSET -0.271150 -0.036492 -0.026467
							CHANNELS 3 Zrotation Yrotation Xrotation
							JOINT right_wrist
							{
								OFFSET -0.249267 -0.004533 -0.015325
								CHANNELS 3 Zrotation Yrotation Xrotation
								JOINT right_index_1
								{
									OFFSET -0.099881 -0.011783 0.019600
									CHANNELS 3 Zrotation Yrotation Xrotation
									JOINT right_index_2
									{
										OFFSET -0.030148 -0.011154 0.001151
										CHANNELS 3 Zrotation Yrotation Xrotation
										JOINT right_index_3
										{
											OFFSET -0.006505 -0.021577 -0.002432
											CHANNELS 3 Zrotation Yrotation Xrotation
											End Site
											{
												OFFSET 0.000000 0.000000 0.000000
											}
										}
									}
								}
								JOINT right_middle_1
								{
									OFFSET -0.107376 -0.009422 -0.003734
									CHANNELS 3 Zrotation Yrotation Xrotation
									JOINT right_middle_2
									{
										OFFSET -0.026472 -0.015218 -0.004641
										CHANNELS 3 Zrotation Yrotation Xrotation
										JOINT right_middle_3
										{
											OFFSET -0.005022 -0.023347 -0.001911
											CHANNELS 3 Zrotation Yrotation Xrotation
											End Site
											{
												OFFSET 0.000000 0.000000 0.000000
											}
										}
									}
								}
								JOINT right_pinky_1
								{
									OFFSET -0.082027 -0.017634 -0.043503
									CHANNELS 3 Zrotation Yrotation Xrotation
									JOINT right_pinky_2
									{
										OFFSET -0.012123 -0.014448 -0.005374
										CHANNELS 3 Zrotation Yrotation Xrotation
										JOINT right_pinky_3
										{
											OFFSET -0.003798 -0.018852 0.000167
											CHANNELS 3 Zrotation Yrotation Xrotation
											End Site
											{
												OFFSET 0.000000 0.000000 0.000000
											}
										}
									}
								}
								JOINT right_ring_1
								{
									OFFSET -0.095423 -0.012362 -0.027099
									CHANNELS 3 Zrotation Yrotation Xrotation
									JOINT right_ring_2
									{
										OFFSET -0.023561 -0.016057 -0.001895
										CHANNELS 3 Zrotation Yrotation Xrotation
										JOINT right_ring_3
										{
											OFFSET -0.004257 -0.023548 0.000816
											CHANNELS 3 Zrotation Yrotation Xrotation
											End Site
											{
												OFFSET 0.000000 0.000000 0.000000
											}
										}
									}
								}
								JOINT right_thumb_1
								{
									OFFSET -0.038613 -0.021074 0.025861
									CHANNELS 3 Zrotation Yrotation Xrotation
									JOINT right_thumb_2
									{
										OFFSET -0.021636 -0.017639 0.011623
										CHANNELS 3 Zrotation Yrotation Xrotation
										JOINT right_thumb_3
										{
											OFFSET -0.024004 -0.008353 0.006547
											CHANNELS 3 Zrotation Yrotation Xrotation
											End Site
											{
												OFFSET 0.000000 0.000000 0.000000
											}
										}
									}
								}
							}
						}
					}
				}
			}
		}
	}
}
MOTION
Frames: 4
Frame Time: 0.050000
0.858398 0.962376 0.339138 -12.534673 -68.198423 7.164898 -39.395614 2.856939 -28.627813 47.760457 1.053103 10.105150 -59.202760 5.097438 62.844343 0.000000 0.000000 0.000000 30.596907 -0.316807 17.789472 -5.139748 4.005789 -22.168846 -13.731889 1.997652 104.846221 0.000000 0.000000 0.000000 0.579564 -0.998736 20.853289 0.953178 -2.091164 -50.026384 -33.533268 -44.726855 60.771157 -0.391918 0.603100 -7.417665 0.000000 0.000000 0.000000 21.572552 -11.947122 81.190090 162.354022 -51.349380 -84.054642 99.220591 40.666717 38.979558 13.868320 -8.836123 -80.557641 23.794233 -23.246346 30.772905 86.108000 -48.571455 -154.884575 0.000000 0.000000 0.000000 -86.923775 -33.043204 6.947012 6.147562 -19.841917 161.469398 0.000000 0.000000 0.000000 -93.244948 -66.700941 5.006403 70.333064 -5.086440 39.429960 0.000000 0.000000 0.000000 -96.726027 -57.923793 39.056217 109.405074 -1.773867 45.830119 0.000000 0.000000 0.000000 58.829626 -28.367051 -5.174771 -35.517401 9.525715 19.038669 0.000000 0.000000 0.000000 -12.240358 -13.452641 -81.665172 92.286188 -62.348727 -82.802570 143.670084 -4.841103 4.939377 -8.558334 -4.216831 19.588599 5.543994 -11.871778 3.869806 -45.947496 5.851781 9.430368 0.000000 0.000000 0.000000 -4.878825 7.519882 -3.752441 -33.365465 4.157050 36.362713 0.000000 0.000000 0.000000 -59.287611 21.400727 -29.776955 -9.650602 -8.770355 43.721125 0.000000 0.000000 0.000000 -20.059832 11.656464 -9.128804 -27.215249 -0.699920 40.732096 0.000000 0.000000 0.000000 -26.662815 -32.244361 30.015314 16.745681 15.963827 1.202124 0.000000 0.000000 0.000000 
0.858398 0.966244 0.333694 -13.922553 -75.636923 7.701276 -36.625882 3.800817 -33.234397 44.078914 -0.781322 16.310517 -58.115596 2.153135 59.700294 0.000000 0.000000 0.000000 31.061857 0.640104 20.464648 -6.006834 4.176101 -21.448604 -14.027566 7.164017 107.115099 0.000000 0.000000 0.000000 -3.719473 0.669379 20.999017 6.409010 -0.928760 -45.746347 -41.752176 -49.643885 62.103761 0.263889 0.624537 -8.311106 0.000000 0.000000 0.000000 10.097673 2.512412 75.356228 170.944252 -59.030410 -129.579246 91.985841 8.346224 10.610422 10.617921 -10.006864 -48.880523 15.319783 -0.426178 2.587636 32.725020 -1.647308 -16.559156 0.000000 0.000000 0.000000 1.666016 -14.395906 -6.709112 32.570540 1.164319 -2.422293 0.000000 0.000000 0.000000 -1.180362 -30.453525 -32.485228 27.350441 1.760289 19.272854 0.000000 0.000000 0.000000 -7.379526 -21.057732 -9.002300 40.188480 1.901354 1.584877 0.000000 0.000000 0.000000 45.101761 9.595703 -1.946314 -24.489877 -9.457765 5.671620 0.000000 0.000000 0.000000 -9.336276 1.618901 -81.618679 84.058096 -56.380391 -70.099625 140.881639 -2.140272 5.955708 -10.116509 -3.696877 32.317657 10.788191 -12.996471 3.469182 -36.534572 4.456551 11.281638 0.000000 0.000000 0.000000 -1.117463 5.057231 -2.538186 -16.098226 -2.438331 31.204191 0.000000 0.000000 0.000000 -63.353381 19.735146 -23.958605 19.561729 -32.182890 43.388391 0.000000 0.000000 0.000000 -16.384550 11.439102 -8.071499 -8.277017 -9.648128 42.413535 0.000000 0.000000 0.000000 -14.489972 -30.677671 27.999281 11.074032 14.770409 -0.604987 0.000000 0.000000 0.000000 
0.847092 0.963020 0.334683 -8.266903 -68.805516 2.092642 -38.853308 2.788455 -27.489031 45.183302 -0.892226 15.041487 -60.996506 3.237304 61.746664 0.000000 0.000000 0.000000 32.653954 0.071772 18.964778 -10.129251 3.202714 -22.913587 -15.663028 4.600552 108.717205 0.000000 0.000000 0.000000 -5.294564 1.390361 22.394011 5.007484 -0.557857 -50.626039 -38.341682 -49.125451 60.739569 1.275631 0.526728 -6.320968 0.000000 0.000000 0.000000 14.469469 -8.694635 81.447964 163.961012 -53.844856 -119.538559 93.360875 9.566157 9.431239 8.652100 -9.207083 -47.808829 12.703283 2.765593 2.709223 25.785497 -5.244790 -21.292815 0.000000 0.000000 0.000000 0.289045 -13.303587 -5.955370 27.808935 0.002648 -7.289295 0.000000 0.000000 0.000000 5.127081 -29.286794 -31.844750 24.333798 1.458466 14.126224 0.000000 0.000000 0.000000 -6.221430 -21.109852 -8.688160 39.315457 1.986854 0.292921 0.000000 0.000000 0.000000 39.614143 8.730758 -2.967661 -23.452315 -8.728858 5.355614 0.000000 0.000000 0.000000 -14.790718 -14.102171 -80.061930 102.315034 -69.382398 -103.672578 146.110518 -13.264957 -20.844650 -10.126356 -2.901876 39.702301 12.910808 -14.620429 3.353934 -39.822047 5.262354 11.108671 0.000000 0.000000 0.000000 -0.630969 5.156003 -2.679735 -25.424771 0.401982 38.013508 0.000000 0.000000 0.000000 -66.589899 18.144152 -29.639444 -3.700324 -19.444427 47.984458 0.000000 0.000000 0.000000 -20.583035 10.304200 -8.312616 -10.439449 -7.030633 35.315776 0.000000 0.000000 0.000000 -12.542938 -34.538866 31.648358 9.892718 16.332956 -1.340381 0.000000 0.000000 0.000000 
0.843323 0.964310 0.329569 -5.989825 -52.932812 0.561830 -44.245666 2.976218 -18.336677 50.074819 1.555393 5.908347 -61.709685 15.012056 71.529933 0.000000 0.000000 0.000000 35.283620 -0.905841 14.657589 -14.920714 1.460683 -24.517739 -10.817512 -0.918882 116.226407 0.000000 0.000000 0.000000 -3.843769 0.872094 25.330662 0.494564 -1.586672 -58.030874 -31.277523 -46.356257 60.930159 5.192746 0.214483 -5.108533 0.000000 0.000000 0.000000 37.675206 -32.219640 86.876786 149.189395 -43.773271 -55.526067 117.489695 51.735919 63.900094 17.839828 -8.046241 -45.130467 20.881756 8.391786 7.574226 45.497406 -10.968462 -36.201458 0.000000 0.000000 0.000000 6.445839 -19.203109 -8.671557 44.477796 -5.008339 -17.717435 0.000000 0.000000 0.000000 17.002763 -38.733402 -44.938784 32.318359 -0.646869 9.696954 0.000000 0.000000 0.000000 2.830332 -32.732919 -16.115037 47.716664 0.558409 -3.707718 0.000000 0.000000 0.000000 63.422989 14.346480 9.190221 -29.597130 -10.579349 8.070427 0.000000 0.000000 0.000000 -27.121892 -40.982910 -81.414148 -168.808612 -79.216540 154.283147 152.466754 -18.049218 -39.071909 -10.703442 -3.616745 46.658992 13.565857 -12.755026 2.420927 -44.720636 6.185382 7.936794 0.000000 0.000000 0.000000 -2.220767 6.695661 -3.582510 -23.946752 4.616864 25.831048 0.000000 0.000000 0.000000 -66.199123 14.881225 -32.849066 -4.021188 -15.408291 34.783423 0.000000 0.000000 0.000000 -20.683968 12.376043 -10.954635 -21.545325 -0.230123 31.028874 0.000000 0.000000 0.000000 -10.672661 -34.588570 31.422635 9.460911 18.444819 -1.719650 0.000000 0.000000 0.000000 
